<svg width="14" height="14" viewBox="0 0 14 14" fill="none" xmlns="http://www.w3.org/2000/svg">
<path d="M11.75 1.25C12.0152 1.25 12.2696 1.35536 12.4571 1.54289C12.6446 1.73043 12.75 1.98478 12.75 2.25V9.7625C12.75 10.5548 12.4352 11.3147 11.875 11.875C11.3147 12.4352 10.5548 12.75 9.7625 12.75H2.25C1.98478 12.75 1.73043 12.6446 1.54289 12.4571C1.35536 12.2696 1.25 12.0152 1.25 11.75V2.25C1.25 1.98478 1.35536 1.73043 1.54289 1.54289C1.73043 1.35536 1.98478 1.25 2.25 1.25H11.75Z" stroke="#101214" stroke-linecap="round" stroke-linejoin="round"/>
<path d="M10.25 12.71V10.75C10.25 10.6174 10.3027 10.4902 10.3964 10.3964C10.4902 10.3027 10.6174 10.25 10.75 10.25H12.71" stroke="#101214" stroke-linecap="round" stroke-linejoin="round"/>
<path d="M2.75 4.25H11.25" stroke="#101214" stroke-linecap="round" stroke-linejoin="round"/>
<path d="M2.75 6.25H11.25" stroke="#101214" stroke-linecap="round" stroke-linejoin="round"/>
<path d="M2.75 8.25H11.25" stroke="#101214" stroke-linecap="round" stroke-linejoin="round"/>
<path d="M2.75 10.25H8.25" stroke="#101214" stroke-linecap="round" stroke-linejoin="round"/>
<path d="M4.25 2.75V11.25" stroke="#101214" stroke-linecap="round" stroke-linejoin="round"/>
</svg>
