<svg width="15" height="15" viewBox="0 0 15 15" fill="none" xmlns="http://www.w3.org/2000/svg">
<path d="M6.07947 11.4098L4.13477 9.46555L11.1931 2.40722C11.4524 2.15675 11.7998 2.01816 12.1603 2.02129C12.5208 2.02443 12.8657 2.16903 13.1206 2.42397C13.3755 2.6789 13.5201 3.02377 13.5233 3.38429C13.5264 3.74481 13.3878 4.09214 13.1373 4.35147L6.07947 11.4098Z" stroke="#101214" stroke-linecap="round" stroke-linejoin="round"/>
<path d="M11.1821 2.4178L11.0327 2.26839C10.8608 2.09654 10.6277 2 10.3846 2C10.1416 2 9.90846 2.09654 9.73656 2.26839L7.9541 4.05085" stroke="#101214" stroke-linecap="round" stroke-linejoin="round"/>
<path d="M9.25 4.34973L11.1947 6.29444" stroke="#101214" stroke-linecap="round" stroke-linejoin="round"/>
<path d="M4.13437 9.46558L3 12.5442L6.07908 11.4098L4.13437 9.46558Z" stroke="#101214" stroke-linecap="round" stroke-linejoin="round"/>
</svg>
