<svg width="11" height="11" viewBox="0 0 11 11" fill="none" xmlns="http://www.w3.org/2000/svg">
<path d="M9.625 2.0625L8.7945 9.94996C8.77084 10.1752 8.66465 10.3836 8.49641 10.5352C8.32817 10.6868 8.10978 10.7707 7.88333 10.7708H3.11667C2.89014 10.7708 2.67164 10.6869 2.5033 10.5354C2.33496 10.3838 2.22871 10.1752 2.20504 9.94996L1.375 2.0625" stroke="#101214" stroke-linecap="round" stroke-linejoin="round"/>
<path d="M0.229492 2.0625H10.7712" stroke="#101214" stroke-linecap="round" stroke-linejoin="round"/>
<path d="M3.4375 2.06246V0.687459C3.4375 0.565902 3.48579 0.449323 3.57174 0.363369C3.6577 0.277415 3.77428 0.229126 3.89583 0.229126H7.10417C7.22572 0.229126 7.3423 0.277415 7.42826 0.363369C7.51421 0.449323 7.5625 0.565902 7.5625 0.687459V2.06246" stroke="#101214" stroke-linecap="round" stroke-linejoin="round"/>
<path d="M5.5 4.125V8.9375" stroke="#101214" stroke-linecap="round" stroke-linejoin="round"/>
<path d="M7.56315 4.125L7.33398 8.9375" stroke="#101214" stroke-linecap="round" stroke-linejoin="round"/>
<path d="M3.4375 4.125L3.66667 8.9375" stroke="#101214" stroke-linecap="round" stroke-linejoin="round"/>
</svg>
